<svg xmlns="http://www.w3.org/2000/svg" width="13.062" height="12.979" viewBox="0 0 13.062 12.979">
  <g id="Layer_x0020_1" transform="translate(-730.46 -870.34)">
    <g id="_2591037504000" transform="translate(730.46 870.34)">
      <g id="Group_26253" data-name="Group 26253" transform="translate(1.427 2.155)">
        <path id="Path_318168" data-name="Path 318168" d="M1541.358,1404.631a2.623,2.623,0,0,1,.517-1.764,2.772,2.772,0,0,1,1.086-.866,2.691,2.691,0,0,1,3.509,1.294,2.736,2.736,0,0,1,0,2.344,2.455,2.455,0,0,1-.621.823c-.035.03-.045.045-.078.074a2.7,2.7,0,0,1-3.612-.126l-.424-.54A2.563,2.563,0,0,1,1541.358,1404.631Zm5.932-.358v.407a3.161,3.161,0,0,1-.33,1.219c-.047.094-.083.169-.141.265s-.091.137-.153.227a2.7,2.7,0,0,1-.372.415,3.218,3.218,0,0,1-3.867.483,3.1,3.1,0,0,1-.712-.556c-.122-.116-.294-.36-.357-.4v1.394h-.558v-6.515c.654,0,.56-.06.558.3v1.115l.3-.362a4.261,4.261,0,0,1,.342-.317,3.247,3.247,0,0,1,5.292,2.323Z" transform="translate(-1535.654 -1399.054)" fill="#e9bd1e" fill-rule="evenodd"/>
        <path id="Path_318169" data-name="Path 318169" d="M1807.152,1536.3c0,.14-.237.032-.542.4a1.077,1.077,0,0,0,.356,1.692.893.893,0,0,0,.311.094,2.326,2.326,0,0,1,.355.05.538.538,0,1,1-.734.48h-.558a1.079,1.079,0,0,0,.811,1.065v.3h.558v-.3a1.089,1.089,0,0,0-.13-2.126c-.239-.024-.681-.029-.681-.561a.532.532,0,0,1,1.064.025h.558a1.074,1.074,0,0,0-.306-.758l-.013-.013c-.49-.487-.492-.006-.492-.6h-.558Z" transform="translate(-1799.04 -1532.805)" fill="#e9bd1e" fill-rule="evenodd"/>
        <path id="Path_318170" data-name="Path 318170" d="M906.34,1536.608h4.335v-.558H906.34Z" transform="translate(-906.34 -1532.805)" fill="#e9bd1e" fill-rule="evenodd"/>
        <path id="Path_318171" data-name="Path 318171" d="M906.34,1802.267h4.335v-.558H906.34Z" transform="translate(-906.34 -1796.31)" fill="#e9bd1e" fill-rule="evenodd"/>
        <path id="Path_318172" data-name="Path 318172" d="M906.34,1270.948h4.335v-.558H906.34Z" transform="translate(-906.34 -1269.3)" fill="#e9bd1e" fill-rule="evenodd"/>
        <path id="Path_318173" data-name="Path 318173" d="M906.34,2071.057h4.335v-.557H906.34Z" transform="translate(-906.34 -2062.921)" fill="#e9bd1e" fill-rule="evenodd"/>
        <path id="Path_318174" data-name="Path 318174" d="M906.34,1136.558h2.712V1136H906.34Z" transform="translate(-906.34 -1136)" fill="#e9bd1e" fill-rule="evenodd"/>
        <path id="Path_318175" data-name="Path 318175" d="M906.34,1402.218h2.712v-.558H906.34Z" transform="translate(-906.34 -1399.505)" fill="#e9bd1e" fill-rule="evenodd"/>
        <path id="Path_318176" data-name="Path 318176" d="M906.34,1671.008h2.712v-.558H906.34Z" transform="translate(-906.34 -1666.115)" fill="#e9bd1e" fill-rule="evenodd"/>
        <path id="Path_318177" data-name="Path 318177" d="M906.34,1936.668h2.712v-.558H906.34Z" transform="translate(-906.34 -1929.62)" fill="#e9bd1e" fill-rule="evenodd"/>
      </g>
      <path id="Path_318178" data-name="Path 318178" d="M730.46,870.593V882.33a1.082,1.082,0,0,0,.989.989h8.289c.865,0,1.394-1.369.659-1.369h-1.268v-.532h-.558v.532h-6.16c-.474,0-.218.4-.512.679a.536.536,0,0,1-.848-.181,21.812,21.812,0,0,1-.034-2.247v-9.177c.1.05.992.406,1.065.406a5.066,5.066,0,0,0,.685-.253c.823-.33.518-.325,1.34,0s.547.321,1.351,0c.83-.332.532-.332,1.344-.007.79.316.558.331,1.224.065l.547-.214V874.4h.558v-3.726c0-.6-.672-.2-.952-.09-.827.331-.522.337-1.347.007-.805-.322-.577-.323-1.365-.007-.111.045-.612.257-.673.26-.144.007-1.136-.5-1.391-.5-.106,0-1.253.507-1.318.507-.031,0-.576-.225-.655-.257a3.077,3.077,0,0,0-.713-.25A.25.25,0,0,0,730.46,870.593Z" transform="translate(-730.46 -870.34)" fill="#e9bd1e" fill-rule="evenodd"/>
      <path id="Path_318179" data-name="Path 318179" d="M1796.924,1536.3c0,.14-.237.032-.543.4a1.077,1.077,0,0,0,.356,1.692.9.9,0,0,0,.311.094,2.326,2.326,0,0,1,.355.05.538.538,0,1,1-.734.48h-.558a1.079,1.079,0,0,0,.811,1.065v.3h.558v-.3a1.089,1.089,0,0,0-.13-2.126c-.239-.024-.681-.029-.681-.561a.532.532,0,0,1,1.064.025h.558a1.073,1.073,0,0,0-.307-.758l-.012-.013c-.49-.487-.492-.006-.492-.6h-.558Z" transform="translate(-1787.469 -1530.651)" fill="#e9bd1e" fill-rule="evenodd"/>
      <path id="Path_318180" data-name="Path 318180" d="M896.11,1536.608h4.335v-.558H896.11Z" transform="translate(-894.766 -1530.651)" fill="#e9bd1e" fill-rule="evenodd"/>
      <path id="Path_318181" data-name="Path 318181" d="M896.11,1802.267h4.335v-.558H896.11Z" transform="translate(-894.766 -1794.156)" fill="#e9bd1e" fill-rule="evenodd"/>
      <path id="Path_318182" data-name="Path 318182" d="M896.11,1270.948h4.335v-.558H896.11Z" transform="translate(-894.766 -1267.145)" fill="#e9bd1e" fill-rule="evenodd"/>
      <path id="Path_318183" data-name="Path 318183" d="M896.11,2071.057h4.335v-.557H896.11Z" transform="translate(-894.766 -2060.766)" fill="#e9bd1e" fill-rule="evenodd"/>
      <path id="Path_318184" data-name="Path 318184" d="M896.11,1136.558h2.712V1136H896.11Z" transform="translate(-894.766 -1133.845)" fill="#e9bd1e" fill-rule="evenodd"/>
      <path id="Path_318185" data-name="Path 318185" d="M896.11,1402.218h2.712v-.558H896.11Z" transform="translate(-894.766 -1397.351)" fill="#e9bd1e" fill-rule="evenodd"/>
      <path id="Path_318186" data-name="Path 318186" d="M896.11,1671.008h2.712v-.558H896.11Z" transform="translate(-894.766 -1663.96)" fill="#e9bd1e" fill-rule="evenodd"/>
      <path id="Path_318187" data-name="Path 318187" d="M896.11,1936.668h2.712v-.558H896.11Z" transform="translate(-894.766 -1927.466)" fill="#e9bd1e" fill-rule="evenodd"/>
    </g>
  </g>
</svg>
