<svg xmlns="http://www.w3.org/2000/svg" width="24" height="24" viewBox="0 0 24 24">
  <g id="Group_26333" data-name="Group 26333" transform="translate(-129 -773.5)">
    <path id="Fill_1" data-name="Fill 1" d="M17.611,0H6.4C2.315,0,0,2.315,0,6.4V17.6C0,21.685,2.315,24,6.4,24H17.611C21.7,24,24,21.685,24,17.6V6.4C24,2.315,21.7,0,17.611,0" transform="translate(129 773.5)" fill="#fff"/>
    <g id="Layer_x0020_1" transform="translate(133.799 778.535)">
      <g id="_2645336723296" transform="translate(0.001 0)">
        <path id="Path_318634" data-name="Path 318634" d="M8124.347,1465.675l-.056-.062-.021-.018a.681.681,0,0,0-.088-.064,3.628,3.628,0,0,1,.3-6.083,12.259,12.259,0,0,0-2.683-3.4,2.247,2.247,0,0,1-1.441.466,2.149,2.149,0,0,1-1.441-.468,13.041,13.041,0,0,0-2.648,3.3c-.959,1.708-2.183,5.132.278,6.422C8118.018,1466.539,8123.478,1466.488,8124.347,1465.675Z" transform="translate(-8115.104 -1452.597)" fill="#2a9ffb" fill-rule="evenodd"/>
        <path id="Path_318635" data-name="Path 318635" d="M8995.713,1693.712c0,.449.029.225-.618.419a3.322,3.322,0,1,0,4.057,1.99,3.24,3.24,0,0,0-1.525-1.734,3.391,3.391,0,0,0-.562-.237c-.181-.057-.534-.1-.668-.163l-.011-.276c.351-.012.637-.121.51-.554-.094-.322-.537-.25-.879-.25s-.723-.064-.815.265C8995.08,1693.6,8995.354,1693.694,8995.713,1693.712Z" transform="translate(-8984.841 -1687.319)" fill="#2a9ffb" fill-rule="evenodd"/>
        <path id="Path_318636" data-name="Path 318636" d="M9088.966,1908.568a2.471,2.471,0,1,0,2.88,1.978A2.458,2.458,0,0,0,9088.966,1908.568Z" transform="translate(-9078.207 -1901.002)" fill="#fff" fill-rule="evenodd"/>
        <path id="Path_318637" data-name="Path 318637" d="M8487.971,1731.821a3.622,3.622,0,0,0-.43.841c.178.071.319.159.535.229s.4.091.609.141l-.115.627.823,0,.136-.617c1.885-.3,1.929-1.817.951-2.255-.551-.246-1.63-.3-1.256-.787.154-.2.586-.231.908-.2a2.911,2.911,0,0,1,.85.273l.389-.8a1.9,1.9,0,0,0-.993-.332,2.409,2.409,0,0,1,.079-.633l-.817,0c-.059.174-.059.354-.1.505-.059.2-.192.144-.4.205-1.184.344-1.462,1.62-.611,2.118.514.3,1.861.4,1.367.878a1.339,1.339,0,0,1-1,.124A4.422,4.422,0,0,1,8487.971,1731.821Z" transform="translate(-8484.194 -1722.421)" fill="#fff" fill-rule="evenodd"/>
        <path id="Path_318638" data-name="Path 318638" d="M8482.218,1071.82c-.585.679-.99,2.077-.2,2.877,1.158,1.165,3.79.459,3.426-1.258-.068-.324-.438-1.208-.844-1.065-.432.152-.8.906-1.234.255A1.6,1.6,0,0,0,8482.218,1071.82Z" transform="translate(-8478.286 -1071.82)" fill="#2a9ffb" fill-rule="evenodd"/>
        <path id="Path_318639" data-name="Path 318639" d="M9307.083,1971.98l.456.2c.111-.147.038-.183.194-.275.653-.384.171-.559.278-.929a3.376,3.376,0,0,0,.373-1.469c-.183.01-.189.07-.276.191a2.195,2.195,0,0,0-.187.306,6.651,6.651,0,0,0-.3.688c-.2.5-.3.137-.482.5a.493.493,0,0,0-.025.415C9307.188,1971.862,9307.152,1971.737,9307.083,1971.98Z" transform="translate(-9296.369 -1961.443)" fill="#2a9ffb" fill-rule="evenodd"/>
      </g>
    </g>
  </g>
</svg>
