<svg id="Iconly_Bulk_Chart" data-name="Iconly/Bulk/Chart" xmlns="http://www.w3.org/2000/svg" width="24" height="24" viewBox="0 0 24 24">
  <g id="Rectangle_42" data-name="Rectangle 42" fill="#fff" stroke="#707070" stroke-width="1" opacity="0">
    <rect width="24" height="24" stroke="none"/>
    <rect x="0.5" y="0.5" width="23" height="23" fill="none"/>
  </g>
  <g id="Chart" transform="translate(2 1.904)">
    <path id="Fill_1" data-name="Fill 1" d="M14.676,0H5.333C1.929,0,0,1.929,0,5.333v9.333C0,18.071,1.929,20,5.333,20h9.342C18.08,20,20,18.071,20,14.667V5.333C20,1.929,18.08,0,14.676,0" fill="#71baf3" opacity="0.4"/>
    <path id="Fill_4" data-name="Fill 4" d="M.827,0A.833.833,0,0,0,0,.836V7.707a.831.831,0,0,0,1.662,0V.836A.835.835,0,0,0,.827,0" transform="translate(4.542 7.369)" fill="#0090ff"/>
    <path id="Fill_6" data-name="Fill 6" d="M.827,0A.833.833,0,0,0,0,.836V10.987a.831.831,0,0,0,1.662,0V.836A.835.835,0,0,0,.827,0" transform="translate(9.209 4.089)" fill="#0090ff"/>
    <path id="Fill_8" data-name="Fill 8" d="M.836,0A.835.835,0,0,0,0,.836V4.08a.831.831,0,0,0,1.662,0V.836A.833.833,0,0,0,.836,0" transform="translate(13.804 10.996)" fill="#0090ff"/>
  </g>
</svg>
