<svg xmlns="http://www.w3.org/2000/svg" width="24" height="24" viewBox="0 0 24 24">
  <g id="Group_26336" data-name="Group 26336" transform="translate(-316 -767)">
    <path id="Fill_1" data-name="Fill 1" d="M17.611,0H6.4C2.315,0,0,2.315,0,6.4V17.6C0,21.685,2.315,24,6.4,24H17.611C21.7,24,24,21.685,24,17.6V6.4C24,2.315,21.7,0,17.611,0" transform="translate(316 767)" fill="#fff"/>
    <path id="Icon_awesome-users" data-name="Icon awesome-users" d="M2.558,7.367A1.706,1.706,0,1,0,.853,5.661,1.707,1.707,0,0,0,2.558,7.367Zm11.94,0a1.706,1.706,0,1,0-1.706-1.706A1.707,1.707,0,0,0,14.5,7.367Zm.853.853H13.645a1.7,1.7,0,0,0-1.2.5,3.9,3.9,0,0,1,2,2.916H16.2a.852.852,0,0,0,.853-.853V9.925A1.707,1.707,0,0,0,15.351,8.22Zm-6.823,0A2.985,2.985,0,1,0,5.543,5.235,2.983,2.983,0,0,0,8.528,8.22Zm2.047.853h-.221a4.121,4.121,0,0,1-3.651,0H6.482a3.071,3.071,0,0,0-3.07,3.07v.768A1.28,1.28,0,0,0,4.691,14.19h7.675a1.28,1.28,0,0,0,1.279-1.279v-.768A3.071,3.071,0,0,0,10.575,9.073ZM4.613,8.716a1.7,1.7,0,0,0-1.2-.5H1.706A1.707,1.707,0,0,0,0,9.925v.853a.852.852,0,0,0,.853.853H2.609A3.908,3.908,0,0,1,4.613,8.716Z" transform="translate(319.392 770.624)" fill="#0090ff"/>
  </g>
</svg>
