<svg xmlns="http://www.w3.org/2000/svg" width="15.509" height="16.494" viewBox="0 0 15.509 16.494">
  <g id="Layer_x0020_1" transform="translate(-3991.66 -889.138)">
    <g id="_2591039917120" transform="translate(3991.66 889.138)">
      <path id="Path_318190" data-name="Path 318190" d="M3996.813,3325.451a4.5,4.5,0,0,0-.525.138c-1.113.309-3.519.816-4.077,1.683a6.893,6.893,0,0,0-.55,3.315h15.509a7.047,7.047,0,0,0-.558-3.3c-.452-.786-2.711-1.326-3.6-1.562-.168-.045-.33-.09-.5-.137s-.361-.115-.521-.145a2.707,2.707,0,0,1-.168,1.563,7.633,7.633,0,0,1-1.871,2.69,3.763,3.763,0,0,1-.53.376c-.127.023-.836-.614-.99-.79a6.884,6.884,0,0,1-.78-1.043,11.094,11.094,0,0,1-.634-1.191A2.829,2.829,0,0,1,3996.813,3325.451Z" transform="translate(-3991.66 -3314.094)" fill="#c67dff" fill-rule="evenodd"/>
      <path id="Path_318191" data-name="Path 318191" d="M4558.316,894.279l.239.021a.288.288,0,0,1,0,.118c-.007.062,0,.057-.028.094a13.312,13.312,0,0,1-.224,1.477c.086-.091.16-.38.326-.546.258-.26.645.215.286,1.024a2.205,2.205,0,0,1-.349.505,4.213,4.213,0,0,0-.292.58c-.09.2-.183.39-.281.572a3.268,3.268,0,0,1-1.734,1.724,3.31,3.31,0,0,1-1.552.025,2.493,2.493,0,0,1-1.061-.666,4.2,4.2,0,0,1-.7-1.026,4.528,4.528,0,0,1,.55.285,3.946,3.946,0,0,0,2.022.441.5.5,0,0,0,.428-.4.514.514,0,0,0-.258-.542,2.6,2.6,0,0,0-.783-.058c-.262.013-.353.213-.483.336a3.254,3.254,0,0,1-.936-.385,5.192,5.192,0,0,1-.765-.554c-.33-.279-.3-.348-.467-.852a5.307,5.307,0,0,1-.3-1.009c.315-.224.459.191.626.547.017-.05-.168-1.032-.189-1.208a1.8,1.8,0,0,1,.129-1.235,2.51,2.51,0,0,1,.679-.739,1.813,1.813,0,0,1,.5-.222c.142-.042.166-.046.246.042a1.488,1.488,0,0,0,.185.164c.073.06.123.113.2.171s.122.1.193.156a4.684,4.684,0,0,0,1.384.751A8.038,8.038,0,0,0,4558.316,894.279Zm-7.509.134c-.767.372-.481,1.229-.265,1.824a2.286,2.286,0,0,0,.44.843,1.223,1.223,0,0,0,.4.247c.256.084.349.012.585-.007a10.623,10.623,0,0,0,.713,1.345,5.1,5.1,0,0,0,.962,1.113,2.735,2.735,0,0,0,3.122.352,5.123,5.123,0,0,0,1.9-2.248,3.878,3.878,0,0,1,.479-.8c.353-.4.593-1.4.28-1.785a.433.433,0,0,0-.356-.167l.1-.982a3.672,3.672,0,0,0-.618-2.651c-1.644-2.033-5.646-1.667-6.582.659a3.207,3.207,0,0,0-.214.89,6.724,6.724,0,0,0-.023,1.082c.018.337.1.706.1,1.016l-.074-.1a4.009,4.009,0,0,0-.249-.6c-.061-.08-.16-.092-.185-.158a6.5,6.5,0,0,1,.19-2.21,3.616,3.616,0,0,1,.439-.764l.272-.329a4.078,4.078,0,0,1,1.9-1.152,4.731,4.731,0,0,1,3.888.574,3.812,3.812,0,0,1,1.166,1.26,3.308,3.308,0,0,1,.393,2.038c0,.2.006.389.015.582s-.013.4.124.478a.245.245,0,0,0,.366-.186c.035-.253.008-1.5.005-1.806a1.832,1.832,0,0,0-.205-.99,3.983,3.983,0,0,0-1.008-1.417,3.926,3.926,0,0,0-.508-.385,5.209,5.209,0,0,0-3.122-.833,5,5,0,0,0-3.419,1.427C4550.579,891.892,4550.84,892.764,4550.807,894.413Z" transform="translate(-4547.704 -889.138)" fill="#c67dff" fill-rule="evenodd"/>
      <path id="Path_318192" data-name="Path 318192" d="M4910.846,1624.808l.015-.192-.228-.041a8.037,8.037,0,0,1-2.413-.411,4.688,4.688,0,0,1-1.384-.751c-.071-.052-.128-.107-.193-.156s-.125-.112-.2-.171a1.454,1.454,0,0,1-.185-.164c-.081-.087-.1-.084-.246-.042a1.811,1.811,0,0,0-.5.222,2.5,2.5,0,0,0-.679.739,1.8,1.8,0,0,0-.129,1.235c.021.176.206,1.158.189,1.208-.167-.356-.311-.772-.626-.547a5.24,5.24,0,0,0,.3,1.009c.167.5.137.573.467.852a5.219,5.219,0,0,0,.765.554,3.254,3.254,0,0,0,.936.385c.131-.123.222-.323.484-.336a2.593,2.593,0,0,1,.783.058.515.515,0,0,1,.259.542.5.5,0,0,1-.429.4,3.943,3.943,0,0,1-2.022-.441,4.537,4.537,0,0,0-.55-.285,4.2,4.2,0,0,0,.7,1.026,2.494,2.494,0,0,0,1.061.666,3.309,3.309,0,0,0,1.552-.025,3.267,3.267,0,0,0,1.733-1.724c.1-.182.191-.375.281-.572a4.316,4.316,0,0,1,.293-.58,2.222,2.222,0,0,0,.349-.505c.359-.809-.028-1.284-.286-1.024-.166.167-.24.455-.326.546A13.425,13.425,0,0,0,4910.846,1624.808Z" transform="translate(-4900.021 -1619.435)" fill="#f6f6f6" fill-rule="evenodd"/>
      <path id="Path_318193" data-name="Path 318193" d="M5433.641,3434.7a2.594,2.594,0,0,0,.553.65c-.041.228-.576,1.338-.529,1.443a4.184,4.184,0,0,0,1.007.987,2.11,2.11,0,0,0,.362-.293,4.231,4.231,0,0,0,.489-.5c.042-.051.117-.132.149-.183.047-.075-.071-.3-.133-.451l-.369-.933c-.035-.144.425-.484.529-.741a1.912,1.912,0,0,0-.373-.4c-.112-.1-.093-.107-.286-.105h-.777c-.171,0-.172.044-.263.128S5433.679,3434.573,5433.641,3434.7Z" transform="translate(-5426.925 -3422.316)" fill="#c67dff" fill-rule="evenodd"/>
      <path id="Path_318194" data-name="Path 318194" d="M6270.514,1993.193c.023-.037.021-.032.028-.094a.289.289,0,0,0,0-.118l-.239-.021.228.041Z" transform="translate(-6259.688 -1987.819)" fill="#747474" fill-rule="evenodd"/>
    </g>
  </g>
</svg>
