<svg xmlns="http://www.w3.org/2000/svg" width="24" height="24" viewBox="0 0 24 24">
  <g id="Group_26335" data-name="Group 26335" transform="translate(-316 -767)">
    <path id="Fill_1" data-name="Fill 1" d="M17.611,0H6.4C2.315,0,0,2.315,0,6.4V17.6C0,21.685,2.315,24,6.4,24H17.611C21.7,24,24,21.685,24,17.6V6.4C24,2.315,21.7,0,17.611,0" transform="translate(316 767)" fill="#fff"/>
    <g id="Layer_x0020_1" transform="translate(-545.897 -361.753)">
      <g id="_2645346496960" transform="translate(867.897 1133.754)">
        <path id="Path_318640" data-name="Path 318640" d="M873.649,1500.126a7.2,7.2,0,0,0,4.678-1.783c.058-.051.076-.079.136-.127s.1-.07.146-.118l.792-.837a6.413,6.413,0,0,0-1-2.755,5.192,5.192,0,0,0-.869-1,5.646,5.646,0,0,0-.509-.414,2.639,2.639,0,0,0-.616-.359,2.429,2.429,0,0,1-.507.495,3.453,3.453,0,0,1-.618.383,3.72,3.72,0,0,1-3.877-.383,2.519,2.519,0,0,1-.508-.494,2.893,2.893,0,0,0-.647.38,5.942,5.942,0,0,0-2.29,3.722c-.073.386-.111.351.077.577.047.057.081.078.128.134a1.321,1.321,0,0,0,.243.258,2.085,2.085,0,0,1,.244.257l.54.462A7.115,7.115,0,0,0,873.649,1500.126Z" transform="translate(-867.897 -1486.419)" fill="#2aa0fb" fill-rule="evenodd"/>
        <path id="Path_318641" data-name="Path 318641" d="M1002.328,1133.761a3.651,3.651,0,0,0-2.079.911l-.222.226a3.577,3.577,0,0,0-.861,2.573,3.443,3.443,0,1,0,6.144-2.4l-.417-.452A3.581,3.581,0,0,0,1002.328,1133.761Z" transform="translate(-996.847 -1133.754)" fill="#2aa0fb" fill-rule="evenodd"/>
      </g>
    </g>
  </g>
</svg>
