<svg xmlns="http://www.w3.org/2000/svg" width="13.376" height="13.376" viewBox="0 0 13.376 13.376">
  <g id="Icon_feather-settings" data-name="Icon feather-settings" transform="translate(-1 -1)">
    <path id="Path_318188" data-name="Path 318188" d="M16.875,15.188A1.688,1.688,0,1,1,15.188,13.5,1.688,1.688,0,0,1,16.875,15.188Z" transform="translate(-7.5 -7.5)" fill="none" stroke="#c67dff" stroke-linecap="round" stroke-linejoin="round" stroke-width="1"/>
    <path id="Path_318189" data-name="Path 318189" d="M11.851,9.376a.928.928,0,0,0,.186,1.024l.034.034a1.126,1.126,0,1,1-1.592,1.592l-.034-.034a.936.936,0,0,0-1.586.664v.1a1.125,1.125,0,1,1-2.25,0V12.7a.974.974,0,0,0-1.631-.664l-.034.034a1.126,1.126,0,1,1-1.592-1.592l.034-.034a.936.936,0,0,0-.664-1.586h-.1a1.125,1.125,0,0,1,0-2.25h.051A.974.974,0,0,0,3.34,4.977l-.034-.034A1.126,1.126,0,1,1,4.9,3.351l.034.034a.928.928,0,0,0,1.024.186H6a.928.928,0,0,0,.563-.849v-.1a1.125,1.125,0,0,1,2.25,0v.051A.936.936,0,0,0,10.4,3.34l.034-.034A1.126,1.126,0,1,1,12.025,4.9l-.034.034a.928.928,0,0,0-.186,1.024V6a.928.928,0,0,0,.849.563h.1a1.125,1.125,0,1,1,0,2.25H12.7a.928.928,0,0,0-.849.563Z" fill="none" stroke="#c67dff" stroke-linecap="round" stroke-linejoin="round" stroke-width="1"/>
  </g>
</svg>
